# xmcd
#
# Track frame offsets:
#	150
#	14772
#	26922
#	39822
#	51222
#	63597
#	76047
#	88797
#	100797
#	112272
#	125022
#	136047
#	148497
#	161172
#	176772
#
# Disc length: 2551 seconds
#
# Revision: 0
# Processed by: cddbd v1.4b41PL1 Copyright (c) Steve Scherf et al.
# Submitted via: audiograbber 1.80
#
DISCID=d709f50f
DTITLE=Multiple - The Classic Rhythm and Blues Collection (1967-1969) disk 1
DYEAR=1900
DGENRE=
TTITLE0=Marvin Gaye - I Heard It Through the Grapevine
TTITLE1=Otis Redding - Sitting on the Dock of the Bay
TTITLE2=Jackie Wilson - Higher and Higher
TTITLE3=Jerry Butler - Only the Strong Survive
TTITLE4=Aretha Franklin - Chain of Fools
TTITLE5=The Temptations - I Wish It Would Rain
TTITLE6=Johnnie Taylor - Who's Making Love
TTITLE7=Aaron Neville - Tell It Like It Is
TTITLE8=Wilson Pickett - Funky Broadway
TTITLE9=Marvin Gaye and Tamumui Terrell - You're All I Need To Get By
TTITLE10=Aretha Franklin - Respect
TTITLE11=Smokey Robinson - I Second that Emotion
TTITLE12=Isley Brothers - It's Your Thing
TTITLE13=Diana Ross - Someday We'll Be Together
TTITLE14=The Originals - Baby, I'm For Real
EXTD=
EXTT0=
EXTT1=
EXTT2=
EXTT3=
EXTT4=
EXTT5=
EXTT6=
EXTT7=
EXTT8=
EXTT9=
EXTT10=
EXTT11=
EXTT12=
EXTT13=
EXTT14=
PLAYORDER=
